<?xml version="1.0" encoding="UTF-8" standalone="no"?>
<svg width="515px" height="108px" viewBox="0 0 515 108" version="1.1" xmlns="http://www.w3.org/2000/svg" xmlns:xlink="http://www.w3.org/1999/xlink" xmlns:sketch="http://www.bohemiancoding.com/sketch/ns">
    <!-- Generator: Sketch 3.5.2 (25235) - http://www.bohemiancoding.com/sketch -->
    <title>Artboard</title>
    <desc>Created with Sketch.</desc>
    <defs></defs>
    <g id="Page-1" stroke="none" stroke-width="1" fill="none" fill-rule="evenodd" sketch:type="MSPage">
        <g id="Artboard" sketch:type="MSArtboardGroup">
            <g id="Group" sketch:type="MSLayerGroup" transform="translate(16.000000, 1.000000)">
                <path d="M125.990953,26.5943507 L138.674399,26.5943507 L160.92357,65.5421479 L161.09512,65.5421479 L161.09512,26.5943507 L171.022591,26.5943507 L171.022591,79.742139 L158.439838,79.742139 L136.239147,40.6331061 L136.071327,40.6331061 L136.071327,79.742139 L125.990953,79.742139 L125.990953,26.5943507 L125.990953,26.5943507 Z" id="Fill-1" fill="#6C6D70" sketch:type="MSShapeGroup"></path>
                <path d="M178.135912,26.5943507 L188.723474,26.5943507 L188.723474,70.9416692 L208.500102,70.9416692 L208.500102,79.742139 L178.135912,79.742139 L178.135912,26.5943507 L178.135912,26.5943507 Z" id="Fill-2" fill="#6C6D70" sketch:type="MSShapeGroup"></path>
                <path d="M225.633754,71.4696224 L234.770608,71.4696224 C239.70078,71.4696224 245.455133,70.4159658 245.455133,64.2440129 C245.455133,57.3146272 240.077442,56.122233 234.770608,56.122233 L225.633754,56.122233 L225.633754,71.4696224 L225.633754,71.4696224 Z M225.633754,47.92171 L233.584682,47.92171 C238.048688,47.92171 243.571823,46.6093263 243.571823,41.1123136 C243.571823,34.9516098 238.194132,34.531647 233.346005,34.531647 L225.633754,34.531647 L225.633754,47.92171 L225.633754,47.92171 Z M215.139425,26.5936007 L237.355033,26.5936007 C244.172245,26.5936007 254.390604,28.5771749 254.390604,40.2236424 C254.390604,46.4630893 250.169004,50.9589407 243.873898,52.1025893 L243.873898,52.2563257 C251.064043,52.9500142 256.266456,57.8283317 256.266456,64.356503 C256.266456,77.3790985 244.299042,79.7413891 237.64965,79.7413891 L215.139425,79.7413891 L215.139425,26.5936007 L215.139425,26.5936007 Z" id="Fill-3" fill="#6C6D70" sketch:type="MSShapeGroup"></path>
                <path d="M284.674986,73.4910682 L290.354753,73.4910682 C297.171965,73.4910682 303.30671,72.0436965 303.30671,64.8855811 C303.30671,56.6588104 296.109106,55.5151618 289.597699,55.5151618 L284.674986,55.5151618 L284.674986,73.4910682 L284.674986,73.4910682 Z M284.674986,49.2719653 L288.840646,49.2719653 C296.187422,49.2719653 302.396754,48.5857761 302.396754,40.7452212 C302.396754,34.4232816 297.019062,32.8221736 292.625914,32.8221736 L284.674986,32.8221736 L284.674986,49.2719653 L284.674986,49.2719653 Z M277.100721,26.578977 L291.417612,26.578977 C302.396754,26.578977 309.971019,30.1561599 309.971019,39.980289 C309.971019,47.2921408 305.730773,50.9480667 299.062734,52.6204184 L299.062734,52.7741548 C306.260338,53.3853506 311.335953,58.1061821 311.335953,65.5717702 C311.335953,76.9932577 301.941776,79.7342647 291.190123,79.7342647 L277.100721,79.7342647 L277.100721,26.578977 L277.100721,26.578977 Z" id="Fill-4" fill="#6C6D70" sketch:type="MSShapeGroup"></path>
                <path d="M342.306532,61.2277803 C340.792425,61.2277803 339.278318,61.0777936 337.760481,61.0777936 C333.893168,61.0777936 324.353546,61.6852398 324.353546,68.5396321 C324.353546,72.6530175 328.291717,74.8615717 331.54742,74.8615717 C338.592121,74.8615717 342.306532,70.4444633 342.306532,64.6549765 L342.306532,61.2277803 L342.306532,61.2277803 Z M321.172429,43.6380897 C324.730208,41.5045289 328.970455,39.9821638 333.893168,39.9821638 C344.958084,39.9821638 349.42209,45.4679275 349.42209,56.0494894 L349.42209,72.116815 C349.42209,76.5376731 349.574993,78.5924909 349.727895,79.7361395 L343.063586,79.7361395 L343.063586,74.7078353 L342.910683,74.7078353 C341.243674,77.0701259 337.454676,80.6510584 330.943269,80.6510584 C322.61195,80.6510584 316.779281,76.9913829 316.779281,68.5396321 C316.779281,58.7942461 327.381761,55.7457663 334.732267,55.7457663 C337.536721,55.7457663 339.502077,55.7457663 342.306532,55.895753 C342.306532,49.1950971 339.882469,45.7679009 332.755723,45.7679009 C328.742966,45.7679009 324.431862,47.2902659 321.549092,49.7312995 L321.172429,43.6380897 L321.172429,43.6380897 Z" id="Fill-5" fill="#6C6D70" sketch:type="MSShapeGroup"></path>
                <path d="M357.675467,40.8974577 L364.567265,40.8974577 L364.567265,47.0619112 L364.720167,47.0619112 C366.838426,42.6485524 371.988628,39.9825388 377.36259,39.9825388 C387.364648,39.9825388 391.828654,46.229485 391.828654,56.6573105 L391.828654,79.7327648 L384.713096,79.7327648 L384.713096,59.6307969 C384.713096,50.5678504 382.74774,46.1469923 376.534679,45.7682759 C368.42712,45.7682759 364.791025,52.3189451 364.791025,61.7606081 L364.791025,79.7327648 L357.675467,79.7327648 L357.675467,40.8974577 L357.675467,40.8974577 Z" id="Fill-6" fill="#6C6D70" sketch:type="MSShapeGroup"></path>
                <path d="M400.154752,22.6178282 L407.27031,22.6178282 L407.27031,56.6573105 L422.799233,40.8974577 L432.495486,40.8974577 L414.538771,58.1084319 L434.766647,79.7327648 L424.540829,79.7327648 L407.27031,59.7807836 L407.27031,79.7327648 L400.154752,79.7327648 L400.154752,22.6178282 L400.154752,22.6178282 Z" id="Fill-7" fill="#6C6D70" sketch:type="MSShapeGroup"></path>
                <path d="M461.419037,61.2277803 C459.904929,61.2277803 458.387093,61.0777936 456.872986,61.0777936 C453.013131,61.0777936 443.46978,61.6852398 443.46978,68.5396321 C443.46978,72.6530175 447.41168,74.8615717 450.667383,74.8615717 C457.712084,74.8615717 461.419037,70.4444633 461.419037,64.6549765 L461.419037,61.2277803 L461.419037,61.2277803 Z M440.288663,43.6380897 C443.850172,41.5045289 448.090418,39.9821638 453.013131,39.9821638 C464.070589,39.9821638 468.542053,45.4679275 468.542053,56.0494894 L468.542053,72.116815 C468.542053,76.5376731 468.694956,78.5924909 468.8404,79.7361395 L462.17609,79.7361395 L462.17609,74.7078353 L462.030646,74.7078353 C460.363637,77.0701259 456.574639,80.6510584 450.063232,80.6510584 C441.731913,80.6510584 435.895515,76.9913829 435.895515,68.5396321 C435.895515,58.7942461 446.501724,55.7457663 453.85223,55.7457663 C456.649226,55.7457663 458.62204,55.7457663 461.419037,55.895753 C461.419037,49.1950971 459.002432,45.7679009 451.875686,45.7679009 C447.862929,45.7679009 443.544367,47.2902659 440.669055,49.7312995 L440.288663,43.6380897 L440.288663,43.6380897 Z" id="Fill-8" fill="#6C6D70" sketch:type="MSShapeGroup"></path>
                <path d="M52.9431107,0.0283308217 C23.7275537,0.0283308217 0.0761544036,23.8237213 0.0761544036,53.1686198 C0.0761544036,82.5210176 23.7275537,106.323907 52.9431107,106.323907 C82.128833,106.323907 105.783962,82.5210176 105.783962,53.1686198 C105.783962,23.8237213 82.128833,0.0283308217 52.9431107,0.0283308217" id="Fill-9" fill="#270C81" sketch:type="MSShapeGroup"></path>
                <path d="M52.9431107,69.5580418 C43.5824969,69.5580418 36.0156901,61.9724643 36.0156901,52.5607987 C36.0156901,49.4898209 36.8473302,46.5688299 38.2756629,44.0715513 L42.3891119,36.9471829 L57.4220338,36.9471829 L49.571798,50.6034722 C49.2212411,51.1771714 49.0459627,51.8783592 49.0459627,52.5607987 C49.0459627,54.7281066 50.7912883,56.5016993 52.9431107,56.5016993 C55.0762864,56.5016993 56.8477173,54.7281066 56.8477173,52.5607987 C56.8477173,50.6634669 55.4753245,49.0436105 53.662871,48.7211391 L60.2488646,37.2171589 C65.9286314,39.9694149 69.8406966,45.8151467 69.8406966,52.5607987 C69.8406966,61.9724643 62.2589725,69.5580418 52.9431107,69.5580418 L52.9431107,69.5580418 Z M5.40163504,69.6442842 L24.1638851,36.9621815 L39.219183,36.9621815 L20.4196396,69.6442842 L5.40163504,69.6442842 L5.40163504,69.6442842 Z" id="Fill-10" fill="#FEFEFE" sketch:type="MSShapeGroup"></path>
            </g>
        </g>
    </g>
</svg>